<?xml version="1.0" encoding="utf-8"?>
<!-- Svg Vector Icons : http://www.onlinewebfonts.com/icon -->
<!DOCTYPE svg PUBLIC "-//W3C//DTD SVG 1.1//EN" "http://www.w3.org/Graphics/SVG/1.1/DTD/svg11.dtd">
<svg version="1.1" xmlns="http://www.w3.org/2000/svg" xmlns:xlink="http://www.w3.org/1999/xlink" x="0px" y="0px" viewBox="0 0 1000 1000" enable-background="new 0 0 1000 1000" xml:space="preserve">
<metadata> Svg Vector Icons : http://www.onlinewebfonts.com/icon </metadata>
<g><path d="M985,147.6c3.1,3.1,5,7.3,5,12c0,4.7-1.9,9-5,12L655.9,500.8l327.5,327.5c3.1,3.1,5,7.3,5,12c0,4.7-1.9,9-5,12L850.8,985c-3.1,3.1-7.3,5-12,5c-4.7,0-9-1.9-12-5L499.2,657.5L173.3,983.4c-3.1,3.1-7.3,5-12,5c-4.7,0-9-1.9-12-5L16.6,850.8c-3.1-3.1-5-7.3-5-12c0-4.7,1.9-9,5-12l325.9-325.9L15,173.3c-3.1-3.1-5-7.3-5-12c0-4.7,1.9-9,5-12L147.6,16.6c3.1-3.1,7.3-5,12-5c4.7,0,9,1.9,12,5l327.5,327.5L828.3,15c3.1-3.1,7.3-5,12-5c4.7,0,9,1.9,12,5L985,147.6z"/></g>
</svg>